<svg xmlns="http://www.w3.org/2000/svg" viewBox="0 0 91.93 162.92"><defs><style>.cls-1{fill:#fff;}.cls-2{fill:none;}.cls-3{fill:#c1c1c1;stroke:#c1c1c1;stroke-miterlimit:10;stroke-width:1.03px;}</style></defs><title>particle_qaps</title><g id="Calque_2" data-name="Calque 2"><g id="Calque_2-2" data-name="Calque 2"><path class="cls-1" d="M53.65,152.69h0a6.18,6.18,0,0,0-7.29-4.78l-13.49,2.8a6.17,6.17,0,1,0,2.51,12.08L48.87,160A6.19,6.19,0,0,0,53.65,152.69Z"/><path class="cls-2" d="M57.14,8.72a21.6,21.6,0,0,0-2.46,5.39l-30,98.79c-3.18,10.46,1.12,22.36,9.64,27.6a20.31,20.31,0,0,0,3.85-7.22l29.46-97C70.82,25.74,66.14,13.69,57.14,8.72Z"/><path class="cls-2" d="M3.12,117.48l30-98.8a22,22,0,0,1,2.53-5.5,20.66,20.66,0,0,0-3.39,6.63l-29.45,97a24.44,24.44,0,0,0-.14,13.38A25.25,25.25,0,0,1,3.12,117.48Z"/><path class="cls-3" d="M24.67,112.9l30-98.79a21.6,21.6,0,0,1,2.46-5.39c-.38-.21-.75-.43-1.14-.61a16.4,16.4,0,0,0-20.34,5.07,22,22,0,0,0-2.53,5.5l-30,98.8a25.25,25.25,0,0,0-.44,12.7c1.72,6.44,5.91,12.08,11.75,14.8a16.35,16.35,0,0,0,19.88-4.48C25.79,135.26,21.49,123.36,24.67,112.9Z"/><path class="cls-1" d="M78.08,1.79A18.17,18.17,0,0,0,66.71.35L45.22,4.74l.13,0C38.69,6,32.94,11.19,30.56,19L1.11,116c-3.66,12.06,2.05,25.92,12.74,30.9a18.07,18.07,0,0,0,11.59,1.39l-.21.06L46.72,144c6.6-1.35,12.28-6.5,14.64-14.27l29.46-97C94.48,20.64,88.76,6.78,78.08,1.79ZM67.62,36.3l-29.46,97a20.31,20.31,0,0,1-3.85,7.22A16.35,16.35,0,0,1,14.43,145c-5.84-2.72-10-8.36-11.75-14.8a24.44,24.44,0,0,1,.14-13.38l29.45-97a20.66,20.66,0,0,1,3.39-6.63A16.4,16.4,0,0,1,56,8.11c.39.18.76.4,1.14.61C66.14,13.69,70.82,25.74,67.62,36.3Z"/></g></g></svg>